# xmcd CD database file
#
# Track frame offsets:
#	150
#	14405
#	28593
#	39219
#	51453
#	72153
#	81356
#	100232
#	113965
#	128629
#	138833
#
# Disc length: 2102 seconds
#
# Revision: 0
# Processed by: cddbd v1.5.2PL0 Copyright (c) Steve Scherf et al.
# Submitted via: CDex 1.51
#
DISCID=8f08340b
DTITLE=Jason Arnold - Crazy Things
DYEAR=2011
DGENRE=Country
TTITLE0=Just One More Time
TTITLE1=I Can't Be The One To Say Goodbye
TTITLE2=Talk Of The Town
TTITLE3=Crazy Things
TTITLE4=Cold Neon Stare
TTITLE5=Down To My Last Dollar
TTITLE6=Maiden's Prayer
TTITLE7=Hello, Whiskey!
TTITLE8=Queen of the Colorado
TTITLE9=Half A Man
TTITLE10=Texas
EXTD=YEAR: 2011
EXTT0=
EXTT1=
EXTT2=
EXTT3=
EXTT4=
EXTT5=
EXTT6=
EXTT7=
EXTT8=
EXTT9=
EXTT10=
PLAYORDER=
